<?xml version="1.0" encoding="UTF-8" standalone="no"?>
<svg
   xmlns:dc="http://purl.org/dc/elements/1.1/"
   xmlns:cc="http://creativecommons.org/ns#"
   xmlns:rdf="http://www.w3.org/1999/02/22-rdf-syntax-ns#"
   xmlns:svg="http://www.w3.org/2000/svg"
   xmlns="http://www.w3.org/2000/svg"
   xmlns:sodipodi="http://sodipodi.sourceforge.net/DTD/sodipodi-0.dtd"
   xmlns:inkscape="http://www.inkscape.org/namespaces/inkscape"
   version="1.1"
   width="1000"
   height="1384.5587"
   id="svg213"
   viewBox="0 0 1000 1384.5587"
   sodipodi:docname="Real_Madrid_CF_1997.svg"
   inkscape:version="1.0.1 (3bc2e813f5, 2020-09-07)">
  <metadata
     id="metadata942">
    <rdf:RDF>
      <cc:Work
         rdf:about="">
        <dc:format>image/svg+xml</dc:format>
        <dc:type
           rdf:resource="http://purl.org/dc/dcmitype/StillImage" />
        <dc:title></dc:title>
      </cc:Work>
    </rdf:RDF>
  </metadata>
  <defs
     id="defs217" />
  <sodipodi:namedview
     id="namedview215"
     pagecolor="#ffffff"
     bordercolor="#666666"
     borderopacity="1.0"
     inkscape:pageshadow="2"
     inkscape:pageopacity="0.0"
     inkscape:pagecheckerboard="0"
     inkscape:document-rotation="0"
     showgrid="false"
     inkscape:zoom="1"
     inkscape:cx="109.85239"
     inkscape:cy="1072.0971"
     inkscape:window-width="1360"
     inkscape:window-height="706"
     inkscape:window-x="-8"
     inkscape:window-y="-8"
     inkscape:window-maximized="1"
     inkscape:current-layer="svg213" />
  <g
     id="Layer1000"
     transform="matrix(4.5515619,0,0,4.5515619,-854.71687,-1223.6774)">
    <path
       d="m 368.6341,323.5286 c 0.6942,0.2504 1.3527,0.602 1.93,1.0586 0.8187,0.6475 1.4657,1.5046 1.7462,2.5195 0.0988,0.3573 0.1492,0.7256 0.1492,1.0964 0,1.363 -0.6686,2.548 -1.6623,3.4211 0.234,0.3753 0.4572,0.7626 0.6689,1.1416 0.6734,1.2061 1.2836,2.4845 1.7322,3.7918 0.511,1.4891 0.9035,3.3007 0.4833,4.8552 -0.5425,2.0076 -2.199,3.776 -3.9278,4.8536 -2.3756,1.4805 -5.1645,1.9304 -7.9062,1.4712 -0.4037,0.1278 -0.8476,0.3353 -1.2036,0.5272 -0.8793,0.4739 -1.6905,1.1205 -2.2614,1.9474 l -0.2722,0.3942 -0.4582,-0.1398 c -1.1804,-0.3601 -2.4434,-0.2278 -3.6022,0.1467 -0.4241,0.137 -0.8411,0.3081 -1.2392,0.5086 -0.158,0.0795 -0.3264,0.1675 -0.4758,0.2629 l -0.3459,0.2228 -0.3511,-0.2157 c -0.3194,-0.1959 -0.6526,-0.3811 -0.9803,-0.5625 -0.94,-0.5203 -1.8981,-1.0121 -2.863,-1.4846 -3.5274,-1.7275 -7.1996,-3.2206 -10.9057,-4.5167 -12.5571,-4.3914 -25.9562,-6.6262 -39.2512,-6.707 -13.3094,0.0808 -26.7239,2.3205 -39.2928,6.7216 -3.7033,1.2967 -7.373,2.7903 -10.8974,4.5184 -0.9603,0.4709 -1.914,0.9609 -2.8497,1.4793 -0.3208,0.1778 -0.6476,0.3595 -0.9603,0.5515 l -0.3512,0.2157 -0.3458,-0.2228 c -0.1494,-0.0954 -0.3178,-0.1834 -0.4758,-0.2629 -0.3981,-0.2005 -0.8151,-0.3716 -1.2392,-0.5086 -1.1588,-0.3745 -2.4218,-0.5068 -3.6022,-0.1467 l -0.4582,0.1398 -0.2722,-0.3942 c -0.571,-0.8269 -1.3821,-1.4735 -2.2614,-1.9474 -0.356,-0.1919 -0.7999,-0.3994 -1.2036,-0.5272 -2.7417,0.4592 -5.5307,0.009 -7.9062,-1.4713 -1.7289,-1.0775 -3.3853,-2.846 -3.9279,-4.8535 -0.4201,-1.5545 -0.0276,-3.3661 0.4834,-4.8552 0.4486,-1.3073 1.0588,-2.5857 1.7322,-3.7918 0.2117,-0.379 0.4349,-0.7663 0.6689,-1.1416 -0.9937,-0.8731 -1.6623,-2.0581 -1.6623,-3.4211 0,-0.3708 0.0504,-0.7391 0.1492,-1.0964 0.2805,-1.0149 0.9275,-1.872 1.7461,-2.5195 0.5774,-0.4566 1.2359,-0.8082 1.9301,-1.0586 -0.8062,-0.9439 -1.2916,-2.1178 -1.2916,-3.399 0,-0.6192 0.1144,-1.2291 0.3362,-1.807 0.6782,-1.7671 2.2378,-3.0056 4.0055,-3.5676 -0.3074,-0.6896 -0.4664,-1.4383 -0.4664,-2.202 0,-2.9245 2.3337,-5.3502 5.2757,-5.3502 0.1533,0 0.3063,0.007 0.4586,0.02 -0.0139,-0.1604 -0.0208,-0.3214 -0.0208,-0.4826 0,-2.9694 2.3575,-5.4497 5.3502,-5.4497 0.6244,0 1.2372,0.1098 1.815,0.3221 0.1155,-1.8976 1.1448,-3.6873 2.856,-4.587 0.6916,-0.3636 1.4533,-0.5543 2.2349,-0.5543 1.1766,0 2.2679,0.4304 3.1375,1.1622 0.4241,-1.4671 1.3945,-2.7535 2.7888,-3.4605 0.6908,-0.3504 1.4469,-0.5336 2.2217,-0.5336 1.9798,0 3.637,1.168 4.5315,2.8223 0.583,-0.8234 1.4702,-1.4026 2.5118,-1.5118 -0.0809,-0.3605 -0.122,-0.7298 -0.122,-1.1024 0,-2.9249 2.4667,-5.1764 5.3503,-5.1764 0.8119,0 1.6056,0.1773 2.3255,0.5136 -0.0164,-0.167 -0.0246,-0.3353 -0.0246,-0.5042 0,-2.7418 2.18,-5.0273 4.9419,-5.0273 1.0855,0 2.1129,0.3597 2.9494,0.9932 0.4482,-2.2798 2.4808,-3.9793 4.8859,-3.9793 1.3291,0 2.5809,0.5239 3.5001,1.4235 0.4458,-1.3098 1.3711,-2.4466 2.7003,-2.9525 0.4411,-0.1679 0.9065,-0.2544 1.3786,-0.2544 0.9023,0 1.7276,0.3114 2.411,0.8309 0.2424,-0.9795 0.8813,-1.8491 1.8388,-2.253 0.3397,-0.1433 0.7023,-0.2175 1.0712,-0.2175 0.1161,0 0.2314,0.007 0.3454,0.0219 v -2.4611 h -2.9721 v -3.3998 h 2.9721 v -2.5573 h 3.3998 v 2.5573 h 2.9721 v 3.3998 h -2.9721 v 2.4611 c 0.114,-0.0145 0.2293,-0.0219 0.3454,-0.0219 0.3688,0 0.7315,0.0742 1.0712,0.2175 0.9575,0.4039 1.5964,1.2735 1.8388,2.253 0.6834,-0.5195 1.5087,-0.8309 2.411,-0.8309 0.4721,0 0.9375,0.0865 1.3786,0.2544 1.3292,0.5059 2.2545,1.6428 2.7003,2.9525 0.9192,-0.8996 2.171,-1.4235 3.5001,-1.4235 2.405,0 4.4376,1.6995 4.8858,3.9793 0.8365,-0.6335 1.864,-0.9932 2.9495,-0.9932 2.7618,0 4.9419,2.2855 4.9419,5.0273 0,0.1689 -0.008,0.3372 -0.0246,0.5042 0.7199,-0.3363 1.5135,-0.5136 2.3255,-0.5136 2.8836,0 5.3503,2.2515 5.3503,5.1764 0,0.3726 -0.0411,0.7419 -0.1221,1.1024 1.0417,0.1092 1.9289,0.6884 2.5119,1.5118 0.8945,-1.6543 2.5517,-2.8223 4.5315,-2.8223 0.7748,0 1.5309,0.1832 2.2216,0.5336 1.3944,0.707 2.3648,1.9934 2.7888,3.4605 0.8697,-0.7318 1.961,-1.1622 3.1376,-1.1622 0.7816,0 1.5433,0.1907 2.2349,0.5543 1.7111,0.8997 2.7405,2.6894 2.856,4.587 0.5778,-0.2123 1.1906,-0.3221 1.815,-0.3221 2.9927,0 5.3502,2.4803 5.3502,5.4497 0,0.1612 -0.007,0.3222 -0.0208,0.4826 0.1523,-0.0133 0.3053,-0.02 0.4586,-0.02 2.942,0 5.2757,2.4257 5.2757,5.3502 0,0.7637 -0.159,1.5124 -0.4665,2.202 1.7677,0.562 3.3274,1.8005 4.0056,3.5676 0.2218,0.5779 0.3362,1.1878 0.3362,1.807 0,1.2812 -0.4854,2.4551 -1.2916,3.399 z m -21.3922,19.7564 c -0.0115,-0.029 -0.0226,-0.0581 -0.0333,-0.0873 -0.1341,-0.3649 -0.2067,-0.7446 -0.1922,-1.1218 -0.5859,-0.1236 -1.1481,-0.3446 -1.6632,-0.6582 -0.0888,-0.054 -0.183,-0.1151 -0.2777,-0.181 -0.1362,0.1441 -0.2856,0.2756 -0.4438,0.3954 -0.1899,0.1439 -0.394,0.2724 -0.6067,0.387 0.578,0.217 1.1533,0.4426 1.7269,0.6697 0.4972,0.1969 0.9939,0.3957 1.49,0.5962 z m -14.6099,-5.0875 c -0.0165,-0.0336 -0.0329,-0.0672 -0.0492,-0.1009 -0.4936,-1.0228 -0.8938,-2.1432 -1.0377,-3.2733 -0.0406,-0.3186 -0.0608,-0.6404 -0.0554,-0.9616 -0.0954,-0.0284 -0.1902,-0.0612 -0.2829,-0.0985 -0.5098,0.7663 -1.3755,1.4533 -2.0296,1.9254 -0.4882,0.3524 -0.9971,0.6822 -1.515,0.9935 0.5042,0.1236 1.0046,0.2611 1.4951,0.402 1.1681,0.3356 2.3271,0.7133 3.4747,1.1134 z m -17.1203,-3.6581 c -0.0699,-0.087 -0.1364,-0.1763 -0.1991,-0.2676 -0.2593,-0.3779 -0.4502,-0.7963 -0.531,-1.2371 -0.7022,0.0386 -1.4078,-0.0451 -2.0837,-0.2523 -0.1356,-0.0415 -0.2832,-0.0922 -0.4318,-0.1503 -0.1163,0.2208 -0.256,0.4291 -0.4117,0.6243 -0.2109,0.2646 -0.4534,0.5089 -0.7143,0.7328 0.7742,0.0829 1.5479,0.1793 2.3198,0.2784 0.684,0.0878 1.368,0.1785 2.0518,0.2718 z m -67.478,8.7456 c 0.4961,-0.2005 0.9928,-0.3993 1.49,-0.5962 0.5736,-0.2271 1.1489,-0.4527 1.7268,-0.6697 -0.2126,-0.1146 -0.4167,-0.2431 -0.6067,-0.387 -0.1585,-0.1201 -0.3079,-0.2517 -0.4437,-0.3954 -0.0947,0.0659 -0.189,0.127 -0.2778,0.181 -0.5149,0.3135 -1.0769,0.5344 -1.6626,0.6581 0.002,0.0645 0.002,0.1294 0,0.1946 -0.0122,0.3175 -0.0834,0.6296 -0.1927,0.9273 -0.0108,0.0292 -0.0219,0.0583 -0.0333,0.0873 z m 14.6099,-5.0875 c 1.1476,-0.4001 2.3066,-0.7778 3.4746,-1.1134 0.4906,-0.1409 0.991,-0.2784 1.4952,-0.402 -0.5179,-0.3113 -1.0268,-0.6411 -1.515,-0.9935 -0.6542,-0.4721 -1.5198,-1.1591 -2.0296,-1.9254 -0.0927,0.0373 -0.1876,0.0701 -0.2829,0.0985 0.005,0.3212 -0.0149,0.643 -0.0554,0.9616 -0.144,1.1301 -0.5442,2.2505 -1.0378,3.2733 -0.0162,0.0337 -0.0326,0.0673 -0.0491,0.1009 z m 17.1203,-3.6581 c 0.6837,-0.0933 1.3678,-0.184 2.0518,-0.2718 0.7719,-0.0991 1.5456,-0.1955 2.3198,-0.2784 -0.2609,-0.2239 -0.5034,-0.4682 -0.7144,-0.7328 -0.1561,-0.1958 -0.2956,-0.4041 -0.4116,-0.6244 -0.1486,0.0582 -0.2962,0.1089 -0.4318,0.1504 -0.6755,0.2071 -1.3806,0.2908 -2.0824,0.2524 -0.0175,0.0969 -0.0405,0.1931 -0.0688,0.2886 -0.1005,0.3396 -0.2635,0.657 -0.4635,0.9484 -0.0627,0.0913 -0.1292,0.1806 -0.1991,0.2676 z m 18.689,-1.3774 c -0.3131,-0.3543 -0.5851,-0.7468 -0.8151,-1.1683 -0.2301,0.4215 -0.502,0.814 -0.8151,1.1683 z m -28.2548,-2.1721 c 0.0335,0.0157 0.0667,0.031 0.0994,0.046 0.6019,0.2751 1.2509,0.4935 1.9048,0.6004 1.6621,0.2719 2.9306,-0.2389 3.79,-1.6094 -0.0873,-0.1207 -0.1701,-0.2442 -0.2458,-0.3622 -0.3681,-0.5737 -0.6667,-1.2053 -0.851,-1.8622 -0.6066,-2.1622 0.1665,-4.0297 1.8633,-5.4437 0.2625,-0.2187 0.5442,-0.4134 0.8406,-0.5831 1.1033,-0.6319 2.3907,-0.9095 3.6564,-0.8753 1.8662,0.0503 3.798,0.7873 5.0303,2.2282 1.5101,1.7658 1.5098,3.9724 0.7344,6.0176 0.2328,0.093 0.469,0.1786 0.7067,0.2573 0.7879,0.2609 1.6364,0.4605 2.4663,0.5087 0.6241,0.0362 1.2717,-0.0118 1.8395,-0.2394 -0.4427,-0.2414 -0.8504,-0.5766 -1.2036,-0.9269 -1.0005,-0.9925 -1.7946,-2.3281 -2.2721,-3.6488 -0.5511,-1.5247 -0.744,-3.2047 -0.3534,-4.7918 0.4468,-1.8157 1.5726,-3.2274 3.0805,-4.2721 0.0603,-0.3801 0.2023,-0.784 0.3555,-1.0903 0.3809,-0.7618 0.9746,-1.3431 1.681,-1.7686 -0.2435,-0.2289 -0.4755,-0.4712 -0.6912,-0.7249 -0.8445,-0.9929 -1.4947,-2.238 -1.355,-3.5792 0.115,-1.104 0.5109,-2.1162 1.2414,-2.9574 0.2458,-0.2831 0.496,-0.511 0.7662,-0.719 -0.035,-0.0382 -0.0691,-0.0762 -0.1019,-0.1135 -0.5127,-0.5822 -0.9341,-1.2535 -1.2169,-1.9767 -0.3941,-1.0075 -0.5014,-2.0668 -0.3242,-3.1344 0.2033,-1.2248 0.7604,-2.3551 1.4758,-3.3621 -0.9178,-0.7277 -1.3104,-1.8467 -1.3454,-3.0637 -0.013,-0.4515 0.0219,-0.9089 0.0932,-1.3562 -0.0785,0.006 -0.1565,0.0118 -0.2339,0.0185 -0.4944,0.0426 -0.9885,0.1087 -1.4784,0.1872 -1.3285,0.2129 -2.6536,0.5214 -3.948,0.8867 -3.3871,0.9559 -6.7508,2.3646 -9.7479,4.2139 -7.6012,4.6905 -11.775,11.5395 -10.9627,20.5313 1.0152,0.007 2.0156,0.4499 2.836,1.025 1.177,0.8251 2.1533,2.0199 2.8004,3.2981 0.7116,1.4056 1.0694,3.0035 0.8959,4.5778 -0.1711,1.5514 -0.829,2.9146 -1.8262,4.0642 z m 54.8794,0 c -0.9973,-1.1496 -1.6551,-2.5128 -1.8262,-4.0642 -0.1735,-1.5743 0.1843,-3.1722 0.8959,-4.5778 0.6471,-1.2782 1.6234,-2.473 2.8004,-3.2981 0.8203,-0.5751 1.8208,-1.0183 2.836,-1.025 0.8122,-8.9918 -3.3615,-15.8408 -10.9627,-20.5313 -2.9971,-1.8493 -6.3608,-3.258 -9.7479,-4.2139 -1.2944,-0.3653 -2.6195,-0.6738 -3.948,-0.8867 -0.4899,-0.0785 -0.984,-0.1446 -1.4784,-0.1872 -0.0774,-0.007 -0.1555,-0.0129 -0.2339,-0.0185 0.0713,0.4473 0.1062,0.9047 0.0932,1.3562 -0.035,1.217 -0.4276,2.336 -1.3454,3.0637 0.7154,1.007 1.2725,2.1373 1.4758,3.3621 0.1771,1.0676 0.0699,2.1269 -0.3242,3.1344 -0.2829,0.7232 -0.7042,1.3945 -1.217,1.9767 -0.0328,0.0373 -0.0668,0.0753 -0.1018,0.1135 0.2702,0.208 0.5204,0.4359 0.7662,0.719 0.7305,0.8412 1.1264,1.8534 1.2414,2.9574 0.1397,1.3412 -0.5105,2.5863 -1.355,3.5792 -0.2157,0.2537 -0.4477,0.496 -0.6912,0.7249 0.7064,0.4255 1.3001,1.0068 1.681,1.7686 0.1532,0.3063 0.2952,0.7102 0.3555,1.0903 1.5079,1.0447 2.6337,2.4564 3.0805,4.2721 0.3906,1.5871 0.1977,3.2671 -0.3535,4.7918 -0.4774,1.3207 -1.2716,2.6563 -2.2721,3.6488 -0.3531,0.3503 -0.7609,0.6855 -1.2036,0.927 0.5745,0.2292 1.2297,0.2747 1.8396,0.2393 0.8298,-0.0482 1.6784,-0.2478 2.4663,-0.5087 0.2377,-0.0787 0.4739,-0.1643 0.7066,-0.2573 -0.7753,-2.0452 -0.7756,-4.2518 0.7345,-6.0176 2.2565,-2.6385 6.8666,-2.987 9.5273,-0.7698 1.6967,1.414 2.4699,3.2815 1.8633,5.4437 -0.1843,0.6569 -0.4829,1.2885 -0.851,1.8622 -0.0758,0.118 -0.1585,0.2415 -0.2458,0.3622 0.8604,1.3721 2.1306,1.882 3.7942,1.6087 0.6539,-0.1074 1.303,-0.3262 1.9049,-0.6017 0.0313,-0.0143 0.0631,-0.029 0.0951,-0.044 z m 27.6555,10.4094 c 0.6356,1.0375 1.6013,1.6777 2.8328,1.9468 0.2134,0.0466 0.4306,0.0811 0.6493,0.104 -1.0559,-1.2065 -1.6808,-2.547 -1.7763,-3.9919 -0.0512,0.0891 -0.1052,0.1777 -0.162,0.266 -0.3653,0.5668 -0.8267,1.078 -1.3427,1.5115 -0.0641,0.0538 -0.1315,0.1089 -0.2011,0.1636 z m 2.4004,-5.3026 c 0.0322,-0.0689 0.0656,-0.1381 0.1002,-0.2074 0.5162,-1.0351 1.2346,-1.9898 2.0324,-2.8248 0.2802,-0.2932 0.5956,-0.6041 0.9168,-0.8774 -0.0659,-7.7795 -2.6182,-14.8771 -8.6904,-19.9619 -1.8087,-1.5146 -3.8568,-2.7814 -6.0168,-3.7307 -0.5507,-0.242 -1.1127,-0.4656 -1.6821,-0.6623 0.1514,1.0567 -0.0869,2.0877 -0.9674,2.891 -0.0441,0.0402 -0.0905,0.0801 -0.1389,0.1194 0.6402,0.264 1.2363,0.6256 1.7453,1.1111 0.7689,0.7334 1.2472,1.6661 1.4274,2.7103 0.0914,0.5292 0.1033,1.0707 0.0478,1.6044 -0.1218,1.1738 -0.5772,2.3665 -1.2932,3.307 -0.3955,0.5196 -0.8971,0.991 -1.4781,1.2975 0.1409,0.1409 0.2789,0.2829 0.4129,0.4232 0.8595,0.8997 1.6737,1.896 2.3186,2.9613 0.7529,1.2438 1.3609,2.7393 1.1846,4.2204 -0.0692,0.5812 -0.2565,1.1287 -0.5597,1.6296 -1.1271,1.8621 -2.9878,2.9681 -5.0479,3.5228 -0.617,0.1661 -1.2524,0.2836 -1.8891,0.3527 0.1037,0.1275 0.2083,0.2506 0.3101,0.3665 0.6756,0.7683 1.5157,1.5061 2.4572,1.9245 0.7024,0.3122 1.7643,0.0173 2.2772,-0.537 0.0678,-0.0734 0.1291,-0.1525 0.1848,-0.2354 0.0683,-0.1015 0.1283,-0.2087 0.182,-0.3187 0.1651,-0.3379 0.2754,-0.7065 0.3755,-1.068 0.0966,-0.3491 0.1852,-0.7249 0.3271,-1.0585 0.3015,-0.8362 1.0488,-1.4663 1.81,-1.8783 0.8992,-0.4865 1.9531,-0.7536 2.9716,-0.8053 1.1361,-0.0576 2.2849,0.1483 3.304,0.6629 1.1773,0.5944 2.0623,1.5369 2.6499,2.7122 0.3859,0.7718 0.6373,1.561 0.7282,2.3489 z m -103.5275,-3.0404 c 0.1419,0.3336 0.2305,0.7094 0.3271,1.0585 0.1001,0.3615 0.2104,0.7301 0.3755,1.068 0.0972,0.199 0.2159,0.391 0.3668,0.5541 0.5129,0.5543 1.5748,0.8492 2.2771,0.537 0.9415,-0.4184 1.7817,-1.1562 2.4573,-1.9245 0.1018,-0.1159 0.2064,-0.239 0.3101,-0.3665 -0.6367,-0.0691 -1.2721,-0.1866 -1.8891,-0.3527 -2.0602,-0.5547 -3.9209,-1.6607 -5.0479,-3.5228 -0.3032,-0.5009 -0.4906,-1.0484 -0.5597,-1.6296 -0.1763,-1.4811 0.4317,-2.9766 1.1845,-4.2204 0.645,-1.0653 1.4592,-2.0616 2.3187,-2.9613 0.134,-0.1403 0.272,-0.2823 0.4128,-0.4232 -0.5809,-0.3065 -1.0825,-0.7779 -1.4781,-1.2975 -0.7159,-0.9405 -1.1713,-2.1332 -1.2932,-3.307 -0.0554,-0.5337 -0.0435,-1.0752 0.0478,-1.6044 0.1803,-1.0442 0.6586,-1.9769 1.4275,-2.7103 0.509,-0.4855 1.105,-0.8471 1.7452,-1.1111 -0.0483,-0.0393 -0.0947,-0.0792 -0.1388,-0.1194 -0.8806,-0.8034 -1.1188,-1.8343 -0.9674,-2.891 -0.5613,0.1939 -1.1154,0.414 -1.6583,0.6519 -2.1605,0.9467 -4.2098,2.2114 -6.0197,3.7236 -6.0861,5.0848 -8.6453,12.1895 -8.7113,19.9794 0.3212,0.2733 0.6366,0.5842 0.9168,0.8774 0.7978,0.835 1.5162,1.7897 2.0324,2.8248 0.0346,0.0693 0.068,0.1385 0.1002,0.2074 0.0909,-0.7879 0.3423,-1.5771 0.7282,-2.3489 0.5876,-1.1753 1.4726,-2.1178 2.6499,-2.7122 1.0191,-0.5146 2.1679,-0.7205 3.304,-0.6629 1.0184,0.0517 2.0723,0.3188 2.9715,0.8053 0.7613,0.412 1.5086,1.0421 1.8101,1.8783 z m -10.7691,6.4019 c -0.0956,1.4449 -0.7205,2.7854 -1.7763,3.9919 0.2186,-0.0229 0.4359,-0.0574 0.6493,-0.104 1.2314,-0.269 2.1972,-0.9093 2.8328,-1.9468 -0.0696,-0.0547 -0.1371,-0.1098 -0.2011,-0.1636 -0.516,-0.4335 -0.9775,-0.9447 -1.3427,-1.5115 -0.0568,-0.0883 -0.1108,-0.1769 -0.162,-0.266 z"
       style="fill:#1b1918;fill-rule:evenodd"
       id="path2" />
    <path
       d="m 361.8076,347.066 c 0,0 -2.5234,0.6872 -3.9642,2.7739 -2.9313,-0.8943 -5.8625,0.9936 -5.8625,0.9936 0,0 -21.4422,-13.1689 -54.3431,-13.3676 -32.9009,0.1987 -54.3431,13.3676 -54.3431,13.3676 0,0 -2.9312,-1.8879 -5.8625,-0.9936 -1.4408,-2.0867 -3.9642,-2.7739 -3.9642,-2.7739 l -1e-4,-4e-4 c -6.1015,1.0995 -10.4167,-2.7725 -11.2414,-5.8237 -0.9937,-3.6767 3.1258,-9.7613 3.1258,-9.7613 l 2e-4,-2e-4 c -1.1577,-0.8202 -1.8812,-1.9851 -1.8812,-3.2773 0,-2.0893 1.8907,-3.8461 4.4518,-4.3506 -1.1791,-0.9259 -1.9179,-2.2511 -1.9179,-3.7229 0,-2.4204 1.9975,-4.4447 4.6674,-4.9474 -0.5,-0.7502 -0.7922,-1.6551 -0.7922,-2.6292 0,-2.5925 2.0691,-4.695 4.6205,-4.695 0.4393,0 0.8644,0.0624 1.267,0.1788 -0.1133,-0.4124 -0.174,-0.8473 -0.174,-1.2966 0,-2.6475 2.1025,-4.7944 4.695,-4.7944 0.9222,0 1.7823,0.2718 2.5078,0.741 -0.0318,-0.2337 -0.0485,-0.4728 -0.0485,-0.7162 0,-2.6748 1.9912,-4.844 4.4466,-4.844 1.4554,0 2.7477,0.7622 3.559,1.94 0.1283,-2.6587 2.1341,-4.7719 4.589,-4.7719 2.2009,0 4.0406,1.6987 4.4902,3.9661 0.241,-1.5189 1.4534,-2.6744 2.9125,-2.6744 0.1914,0 0.3786,0.0201 0.5599,0.0581 -0.2482,-0.5508 -0.386,-1.1584 -0.386,-1.797 0,-2.4965 2.1024,-4.5211 4.695,-4.5211 1.4075,0 2.6703,0.5969 3.5309,1.5419 -0.3654,-0.6435 -0.5748,-1.3908 -0.5748,-2.1878 0,-2.4142 1.9196,-4.3721 4.2867,-4.3721 1.4851,0 2.794,0.7708 3.5633,1.9414 -0.0332,-0.2134 -0.0505,-0.432 -0.0505,-0.6545 0,-2.3595 1.9356,-4.2729 4.3225,-4.2729 1.6851,0 3.1451,0.9538 3.8581,2.3447 0.1178,-2.3028 1.7388,-4.1282 3.7209,-4.1282 1.2755,0 2.4014,0.756 3.0735,1.9086 -0.0754,-0.2645 -0.1163,-0.547 -0.1163,-0.8404 0,-1.4952 1.0585,-2.7077 2.3638,-2.7077 0.3576,0 0.6967,0.0911 1.0006,0.2541 v -4.0038 h -2.9721 v -2.0894 h 2.9721 v -2.5573 h 2.0894 v 2.5573 h 2.9721 v 2.0894 h -2.9721 v 4.0038 c 0.3038,-0.163 0.6429,-0.2541 1.0006,-0.2541 1.3053,0 2.3638,1.2125 2.3638,2.7077 0,0.2934 -0.0409,0.5759 -0.1164,0.8404 0.6722,-1.1526 1.7981,-1.9086 3.0736,-1.9086 1.982,0 3.6031,1.8254 3.7209,4.1283 0.713,-1.391 2.173,-2.3448 3.8581,-2.3448 2.3868,0 4.3225,1.9134 4.3225,4.2729 0,0.2225 -0.0173,0.4411 -0.0505,0.6545 0.7693,-1.1706 2.0781,-1.9414 3.5633,-1.9414 2.3671,0 4.2867,1.9579 4.2867,4.3721 0,0.797 -0.2094,1.5443 -0.5749,2.1878 0.8606,-0.945 2.1235,-1.5419 3.531,-1.5419 2.5925,0 4.695,2.0246 4.695,4.5211 0,0.6386 -0.1379,1.2462 -0.386,1.797 0.1813,-0.038 0.3684,-0.0581 0.5599,-0.0581 1.4591,0 2.6715,1.1555 2.9124,2.6744 0.4497,-2.2674 2.2894,-3.9661 4.4903,-3.9661 2.4549,0 4.4607,2.1132 4.589,4.7719 0.8112,-1.1778 2.1035,-1.94 3.559,-1.94 2.4553,0 4.4466,2.1692 4.4466,4.844 0,0.2434 -0.0167,0.4825 -0.0485,0.7162 0.7255,-0.4692 1.5856,-0.741 2.5078,-0.741 2.5925,0 4.695,2.1469 4.695,4.7944 0,0.4493 -0.0608,0.8842 -0.174,1.2966 0.4026,-0.1164 0.8276,-0.1788 1.267,-0.1788 2.5514,0 4.6205,2.1025 4.6205,4.695 0,0.9741 -0.2922,1.879 -0.7922,2.6292 2.6698,0.5027 4.6674,2.527 4.6674,4.9474 0,1.4718 -0.7388,2.797 -1.918,3.7229 2.5611,0.5045 4.4518,2.2613 4.4518,4.3506 0,1.2922 -0.7234,2.4571 -1.8812,3.2773 l 3e-4,2e-4 c 0,0 4.1195,6.0846 3.1258,9.7613 -0.8247,3.0512 -5.1399,6.9231 -11.2413,5.8237 z m -115.5508,-2.3443 c 0,0 1.8431,-1.722 1.2215,-3.1966 1.8238,-0.1289 2.8389,-1.2375 2.8389,-1.2375 0.7052,1.3639 2.9518,1.7536 2.9518,1.7536 -0.7619,0.0822 -7.0122,2.6805 -7.0122,2.6805 z m 14.9623,-5.3122 c 0.0847,-0.1915 2.2219,-3.2945 1.8742,-6.0767 0,0 0.8197,-0.0745 1.2482,-0.4906 0.5217,1.8134 5.136,4.1299 5.136,4.1299 -3.1052,0.472 -8.2584,2.4374 -8.2584,2.4374 z m 16.3815,-3.9031 c 0,0 2.5338,-1.3911 2.2606,-3.2045 2.0618,0.3726 3.5026,-0.5714 3.5026,-0.5714 0.3975,1.7141 2.7822,2.7823 2.7822,2.7823 -0.8694,-0.1242 -8.5454,0.9936 -8.5454,0.9936 z m 71.4182,9.2153 c 0,0 -1.8431,-1.722 -1.2215,-3.1966 -1.8238,-0.1289 -2.8389,-1.2375 -2.8389,-1.2375 -0.7052,1.3639 -2.9519,1.7536 -2.9519,1.7536 0.762,0.0822 7.0123,2.6805 7.0123,2.6805 z m -14.9623,-5.3122 c -0.0847,-0.1915 -2.222,-3.2945 -1.8742,-6.0767 0,0 -0.8198,-0.0745 -1.2483,-0.4906 -0.5216,1.8134 -5.1359,4.1299 -5.1359,4.1299 3.1052,0.472 8.2584,2.4374 8.2584,2.4374 z m -16.3815,-3.9031 c 0,0 -2.5338,-1.3911 -2.2606,-3.2045 -2.0618,0.3726 -3.5026,-0.5714 -3.5026,-0.5714 -0.3975,1.7141 -2.7822,2.7823 -2.7822,2.7823 0.8694,-0.1242 8.5454,0.9936 8.5454,0.9936 z m -20.0372,-1.6892 h 2.6731 c -2.1985,-1.1799 -2.6731,-3.6268 -2.6731,-3.6268 0,0 -0.4746,2.4469 -2.6731,3.6268 z m 32.7311,-15.0787 c -3.7804,-0.8124 -9.8443,7.0866 -4.223,12.4207 0,0 -5.2664,3.3784 -7.6512,-1.1924 0,0 3.4778,-3.8752 -0.3974,-7.1046 -3.8753,-3.2294 -12.1699,-0.284 -8.9902,6.6219 0.2484,-0.0994 -5.2191,2.6191 -7.4051,-0.1632 2.4344,0.795 8.7441,-8.3467 1.6644,-12.9175 0,0 0.0248,-2.0866 -2.6084,-3.0803 0,0 2.8396,-2.0003 2.5912,-4.385 -0.2484,-2.3848 -1.8459,-3.3158 -2.3924,-3.6636 0,0 4.5708,-3.4778 0.2484,-8.8435 2.5338,-1.1924 1.3911,-4.9186 1.3911,-4.9186 4.6553,-0.165 30.2703,5.5524 27.7726,27.2261 z m -65.4622,0 c 3.7804,-0.8124 9.8443,7.0866 4.223,12.4207 0,0 5.2664,3.3784 7.6511,-1.1924 0,0 -3.4777,-3.8752 0.3975,-7.1046 3.8753,-3.2294 12.1699,-0.284 8.9902,6.6219 -0.2485,-0.0994 5.219,2.6191 7.4051,-0.1632 -2.4345,0.795 -8.7442,-8.3467 -1.6644,-12.9175 0,0 -0.0248,-2.0866 2.6084,-3.0803 0,0 -2.8396,-2.0003 -2.5912,-4.385 0.2484,-2.3848 1.8459,-3.3158 2.3924,-3.6636 0,0 -4.5708,-3.4778 -0.2484,-8.8435 -2.5338,-1.1924 -1.3911,-4.9186 -1.3911,-4.9186 -4.6553,-0.165 -30.2703,5.5524 -27.7726,27.2261 z m -8.5206,-7.7256 c -7.0301,1.2172 -4.2975,9.3652 -0.9688,9.5639 0,0 -6.3594,5.4154 -4.074,9.1913 2.2854,3.7759 7.6015,3.6268 7.6015,3.6268 0,0 -1.4905,2.4842 -3.7262,3.4778 -0.9264,0.4117 -2.2938,0.0987 -3.0243,-0.6909 -0.7776,-0.8405 -0.8981,-2.1947 -1.1988,-2.8863 -0.8282,-2.3725 -7.2039,-3.9249 -9.539,0.7453 -2.3351,4.6702 1.9376,7.1543 1.9376,7.1543 -1.6892,3.6268 -5.9122,2.8816 -5.9122,2.8816 6.6574,-5.6142 -1.0456,-11.5793 -1.0456,-11.5793 0,-21.3643 17.9858,-25.6372 17.9858,-25.6372 -1.3679,3.4737 1.964,4.1527 1.964,4.1527 z m 82.5034,0 c 7.0301,1.2172 4.2975,9.3652 0.9688,9.5639 0,0 6.3594,5.4154 4.074,9.1913 -2.2854,3.7759 -7.6015,3.6268 -7.6015,3.6268 0,0 1.4905,2.4842 3.7262,3.4778 0.9264,0.4117 2.2938,0.0987 3.0243,-0.6909 0.7776,-0.8405 0.8981,-2.1947 1.1987,-2.8863 0.8283,-2.3725 7.204,-3.9249 9.5391,0.7453 2.3351,4.6702 -1.9376,7.1543 -1.9376,7.1543 1.6892,3.6268 5.9122,2.8816 5.9122,2.8816 -6.6575,-5.6142 1.0456,-11.5793 1.0456,-11.5793 0,-21.3643 -17.9858,-25.6372 -17.9858,-25.6372 1.3679,3.4737 -1.964,4.1527 -1.964,4.1527 z"
       style="fill:#fcb900;fill-rule:evenodd"
       id="path4" />
    <path
       d="m 297.6378,368.9658 a 94.2238,94.2238 0 0 1 94.2238,94.2238 94.2238,94.2238 0 1 1 -94.2238,-94.2238 z"
       style="fill:#ffffff;fill-rule:evenodd"
       id="path6" />
    <path
       d="m 212.7629,422.231 125.8335,125.8335 c 19.133,-9.2522 34.6638,-24.7837 43.9163,-43.9162 L 256.6792,378.3147 c -19.1326,9.2525 -34.664,24.7834 -43.9163,43.9163 z"
       style="fill:#4c638b;fill-rule:evenodd"
       id="path8" />
    <path
       d="m 287.6367,458.9536 h 9.9398 11.5484 v 11.9648 h -11.5484 v 6.6374 h 9.3246 v 11.9649 h -9.3246 v 46.8596 h -14.1673 v -77.4267 z"
       style="fill:#fcb900;fill-rule:evenodd"
       id="path10" />
    <path
       d="m 298.2317,471.5736 v 5.327 h 9.3247 v 13.2753 h -9.3247 v 46.8596 h -15.4778 v -78.7372 h 27.0263 v 13.2753 z m -10.595,-12.62 h 9.9398 11.5484 v 11.9648 h -11.5484 v 6.6374 h 9.3246 v 11.9649 h -9.3246 v 46.8596 h -14.1673 v -77.4267 z"
       style="fill:#1b1918;fill-rule:evenodd"
       id="path12" />
    <path
       d="m 245.3869,352.2365 5.0009,10.4067 c 14.8013,-6.9694 30.885,-10.5298 47.25,-10.5298 16.3649,0 32.4495,3.559 47.2507,10.5283 l 4.999,-10.4026 c -16.3644,-7.7223 -34.1497,-11.6687 -52.2497,-11.6687 -18.0997,0 -35.8864,3.9442 -52.2509,11.6661 z"
       style="fill:#fcb900;fill-rule:evenodd"
       id="path14" />
    <path
       d="m 298.4529,333.162 c -0.3131,-0.3543 -0.5851,-0.7468 -0.8151,-1.1683 -0.2301,0.4215 -0.502,0.814 -0.8151,1.1683 z"
       style="fill:#e30016;fill-rule:evenodd"
       id="path16" />
    <path
       d="m 355.8735,320.6922 c -0.2618,-0.176 -0.5256,-0.3483 -0.7906,-0.5167 -3.4267,-2.1775 -7.2457,-3.8248 -11.1616,-5.0288 0.031,0.3731 0.0251,0.7493 -0.0136,1.1217 -0.1218,1.1738 -0.5772,2.3665 -1.2932,3.307 -0.3955,0.5196 -0.8971,0.991 -1.4781,1.2975 0.1409,0.1409 0.2789,0.2829 0.4129,0.4232 0.8595,0.8997 1.6737,1.896 2.3186,2.9613 0.7529,1.2438 1.3609,2.7393 1.1846,4.2204 -0.0692,0.5812 -0.2565,1.1287 -0.5597,1.6296 -1.1271,1.8621 -2.9878,2.9681 -5.0479,3.5228 -0.617,0.1661 -1.2524,0.2836 -1.8891,0.3527 0.1037,0.1275 0.2083,0.2506 0.3101,0.3665 0.6756,0.7683 1.5157,1.5061 2.4572,1.9245 0.7024,0.3122 1.7643,0.0173 2.2772,-0.537 0.0678,-0.0734 0.1291,-0.1525 0.1848,-0.2354 0.0683,-0.1015 0.1283,-0.2087 0.182,-0.3187 0.1651,-0.3379 0.2754,-0.7065 0.3755,-1.068 0.0966,-0.3491 0.1852,-0.7249 0.3271,-1.0585 0.3015,-0.8362 1.0488,-1.4663 1.81,-1.8783 0.8992,-0.4865 1.9531,-0.7536 2.9716,-0.8053 1.1361,-0.0576 2.2849,0.1483 3.304,0.6629 1.1773,0.5944 2.0623,1.5369 2.6499,2.7122 0.3859,0.7718 0.6373,1.561 0.7282,2.3489 0.0322,-0.0689 0.0656,-0.1381 0.1002,-0.2074 0.5162,-1.0351 1.2346,-1.9898 2.0324,-2.8248 0.2802,-0.2932 0.5956,-0.6041 0.9168,-0.8774 -0.0346,-4.0838 -0.7549,-7.9794 -2.3093,-11.4949 z m -26.7344,-10.4423 c -0.0833,-0.0408 -0.1666,-0.0811 -0.2495,-0.1211 -0.6966,-0.336 -1.4054,-0.6498 -2.1197,-0.946 -2.3521,-0.9754 -4.8035,-1.7751 -7.2834,-2.3524 -5.2543,-1.2234 -10.8737,-1.4807 -15.976,0.2346 0.264,0.561 0.424,1.1678 0.4904,1.8052 0.1397,1.3412 -0.5105,2.5863 -1.355,3.5792 -0.2157,0.2537 -0.4477,0.496 -0.6912,0.7249 0.7064,0.4255 1.3001,1.0068 1.681,1.7686 0.1532,0.3063 0.2952,0.7102 0.3555,1.0903 1.5079,1.0447 2.6337,2.4564 3.0805,4.2721 0.3906,1.5871 0.1977,3.2671 -0.3535,4.7918 -0.4774,1.3207 -1.2716,2.6563 -2.2721,3.6488 -0.3531,0.3503 -0.7609,0.6855 -1.2036,0.927 0.5745,0.2292 1.2297,0.2747 1.8396,0.2393 0.8298,-0.0482 1.6784,-0.2478 2.4663,-0.5087 0.2377,-0.0787 0.4739,-0.1643 0.7066,-0.2573 -0.7753,-2.0452 -0.7756,-4.2518 0.7345,-6.0176 2.2565,-2.6385 6.8666,-2.987 9.5273,-0.7698 1.6967,1.414 2.4699,3.2815 1.8633,5.4437 -0.1843,0.6569 -0.4829,1.2885 -0.851,1.8622 -0.0758,0.118 -0.1585,0.2415 -0.2458,0.3622 0.8604,1.3721 2.1306,1.882 3.7942,1.6087 0.6539,-0.1074 1.303,-0.3262 1.9049,-0.6017 0.0313,-0.0143 0.0631,-0.029 0.0951,-0.044 -0.9973,-1.1496 -1.6551,-2.5128 -1.8262,-4.0642 -0.1735,-1.5743 0.1843,-3.1722 0.8959,-4.5778 0.6471,-1.2782 1.6234,-2.473 2.8004,-3.2981 0.8203,-0.5751 1.8208,-1.0183 2.836,-1.025 0.2529,-2.7995 0.0222,-5.3912 -0.6445,-7.7749 z m 18.1028,33.0351 c -0.0115,-0.029 -0.0226,-0.0581 -0.0333,-0.0873 -0.1341,-0.3649 -0.2067,-0.7446 -0.1922,-1.1218 -0.5859,-0.1236 -1.1481,-0.3446 -1.6632,-0.6582 -0.0888,-0.054 -0.183,-0.1151 -0.2777,-0.181 -0.1362,0.1441 -0.2856,0.2756 -0.4438,0.3954 -0.1899,0.1439 -0.394,0.2724 -0.6067,0.387 0.578,0.217 1.1533,0.4426 1.7269,0.6697 0.4972,0.1969 0.9939,0.3957 1.49,0.5962 z m -14.6099,-5.0875 c -0.0165,-0.0336 -0.0329,-0.0672 -0.0492,-0.1009 -0.4936,-1.0228 -0.8938,-2.1432 -1.0377,-3.2733 -0.0406,-0.3186 -0.0608,-0.6404 -0.0554,-0.9616 -0.0954,-0.0284 -0.1902,-0.0612 -0.2829,-0.0985 -0.5098,0.7663 -1.3755,1.4533 -2.0296,1.9254 -0.4882,0.3524 -0.9971,0.6822 -1.515,0.9935 0.5042,0.1236 1.0046,0.2611 1.4951,0.402 1.1681,0.3356 2.3271,0.7133 3.4747,1.1134 z m -17.1203,-3.6581 c -0.0699,-0.087 -0.1364,-0.1763 -0.1991,-0.2676 -0.2593,-0.3779 -0.4502,-0.7963 -0.531,-1.2371 -0.7022,0.0386 -1.4078,-0.0451 -2.0837,-0.2523 -0.1356,-0.0415 -0.2832,-0.0922 -0.4318,-0.1503 -0.1163,0.2208 -0.256,0.4291 -0.4117,0.6243 -0.2109,0.2646 -0.4534,0.5089 -0.7143,0.7328 0.7742,0.0829 1.5479,0.1793 2.3198,0.2784 0.684,0.0878 1.368,0.1785 2.0518,0.2718 z m 37.2213,6.8599 c 0.6356,1.0375 1.6013,1.6777 2.8328,1.9468 0.2134,0.0466 0.4306,0.0811 0.6493,0.104 -1.0559,-1.2065 -1.6808,-2.547 -1.7763,-3.9919 -0.0512,0.0891 -0.1052,0.1777 -0.162,0.266 -0.3653,0.5668 -0.8267,1.078 -1.3427,1.5115 -0.0641,0.0538 -0.1315,0.1089 -0.2011,0.1636 z"
       style="fill:#1b1918;fill-rule:evenodd"
       id="path18" />
    <path
       d="m 356.3368,321.8136 c -2.4786,-1.7838 -6.5219,-4.1401 -12.3993,-5.9749 -0.005,0.1436 -0.0149,0.2869 -0.0298,0.4297 -0.1218,1.1738 -0.5772,2.3665 -1.2932,3.307 -0.3955,0.5196 -0.8971,0.991 -1.4781,1.2975 0.1409,0.1409 0.2789,0.2829 0.4129,0.4232 0.8595,0.8997 1.6737,1.896 2.3186,2.9613 0.7529,1.2438 1.3609,2.7393 1.1846,4.2204 -0.0692,0.5812 -0.2565,1.1287 -0.5597,1.6296 -1.1271,1.8621 -2.9878,2.9681 -5.0479,3.5228 -0.617,0.1661 -1.2524,0.2836 -1.8891,0.3527 0.1037,0.1275 0.2083,0.2506 0.3101,0.3665 0.6756,0.7683 1.5157,1.5061 2.4572,1.9245 0.7024,0.3122 1.7643,0.0173 2.2772,-0.537 0.0678,-0.0734 0.1291,-0.1525 0.1848,-0.2354 0.0683,-0.1015 0.1283,-0.2087 0.182,-0.3187 0.1651,-0.3379 0.2754,-0.7065 0.3755,-1.068 0.0966,-0.3491 0.1852,-0.7249 0.3271,-1.0585 0.3015,-0.8362 1.0488,-1.4663 1.81,-1.8783 0.8992,-0.4865 1.9531,-0.7536 2.9716,-0.8053 1.1361,-0.0576 2.2849,0.1483 3.304,0.6629 1.1773,0.5944 2.0623,1.5369 2.6499,2.7122 0.3859,0.7718 0.6373,1.561 0.7282,2.3489 0.0322,-0.0689 0.0656,-0.1381 0.1002,-0.2074 0.5162,-1.0351 1.2346,-1.9898 2.0324,-2.8248 0.2802,-0.2932 0.5956,-0.6041 0.9168,-0.8774 -0.031,-3.6543 -0.6107,-7.1581 -1.846,-10.3735 z m -26.9822,-10.718 c -0.039,-0.0211 -13.7351,-7.3911 -25.6028,-3.4194 0.1241,0.3824 0.2062,0.7818 0.2491,1.194 0.1397,1.3412 -0.5105,2.5863 -1.355,3.5792 -0.2157,0.2537 -0.4477,0.496 -0.6912,0.7249 0.7064,0.4255 1.3001,1.0068 1.681,1.7686 0.1532,0.3063 0.2952,0.7102 0.3555,1.0903 1.5079,1.0447 2.6337,2.4564 3.0805,4.2721 0.3906,1.5871 0.1977,3.2671 -0.3535,4.7918 -0.4774,1.3207 -1.2716,2.6563 -2.2721,3.6488 -0.3531,0.3503 -0.7609,0.6855 -1.2036,0.927 0.5745,0.2292 1.2297,0.2747 1.8396,0.2393 0.8298,-0.0482 1.6784,-0.2478 2.4663,-0.5087 0.2377,-0.0787 0.4739,-0.1643 0.7066,-0.2573 -0.7753,-2.0452 -0.7756,-4.2518 0.7345,-6.0176 2.2565,-2.6385 6.8666,-2.987 9.5273,-0.7698 1.6967,1.414 2.4699,3.2815 1.8633,5.4437 -0.1843,0.6569 -0.4829,1.2885 -0.851,1.8622 -0.0758,0.118 -0.1585,0.2415 -0.2458,0.3622 0.8604,1.3721 2.1306,1.882 3.7942,1.6087 0.6539,-0.1074 1.303,-0.3262 1.9049,-0.6017 0.0313,-0.0143 0.0631,-0.029 0.0951,-0.044 -0.9973,-1.1496 -1.6551,-2.5128 -1.8262,-4.0642 -0.1735,-1.5743 0.1843,-3.1722 0.8959,-4.5778 0.6471,-1.2782 1.6234,-2.473 2.8004,-3.2981 0.8203,-0.5751 1.8208,-1.0183 2.836,-1.025 0.2233,-2.4719 0.069,-4.7815 -0.429,-6.9292 z m 17.8873,32.1894 c -0.0115,-0.029 -0.0226,-0.0581 -0.0333,-0.0873 -0.1341,-0.3649 -0.2067,-0.7446 -0.1922,-1.1218 -0.5859,-0.1236 -1.1481,-0.3446 -1.6632,-0.6582 -0.0888,-0.054 -0.183,-0.1151 -0.2777,-0.181 -0.1362,0.1441 -0.2856,0.2756 -0.4438,0.3954 -0.1899,0.1439 -0.394,0.2724 -0.6067,0.387 0.578,0.217 1.1533,0.4426 1.7269,0.6697 0.4972,0.1969 0.9939,0.3957 1.49,0.5962 z m -14.6099,-5.0875 c -0.0165,-0.0336 -0.0329,-0.0672 -0.0492,-0.1009 -0.4936,-1.0228 -0.8938,-2.1432 -1.0377,-3.2733 -0.0406,-0.3186 -0.0608,-0.6404 -0.0554,-0.9616 -0.0954,-0.0284 -0.1902,-0.0612 -0.2829,-0.0985 -0.5098,0.7663 -1.3755,1.4533 -2.0296,1.9254 -0.4882,0.3524 -0.9971,0.6822 -1.515,0.9935 0.5042,0.1236 1.0046,0.2611 1.4951,0.402 1.1681,0.3356 2.3271,0.7133 3.4747,1.1134 z m -17.1203,-3.6581 c -0.0699,-0.087 -0.1364,-0.1763 -0.1991,-0.2676 -0.2593,-0.3779 -0.4502,-0.7963 -0.531,-1.2371 -0.7022,0.0386 -1.4078,-0.0451 -2.0837,-0.2523 -0.1356,-0.0415 -0.2832,-0.0922 -0.4318,-0.1503 -0.1163,0.2208 -0.256,0.4291 -0.4117,0.6243 -0.2109,0.2646 -0.4534,0.5089 -0.7143,0.7328 0.7742,0.0829 1.5479,0.1793 2.3198,0.2784 0.684,0.0878 1.368,0.1785 2.0518,0.2718 z m 37.2213,6.8599 c 0.6356,1.0375 1.6013,1.6777 2.8328,1.9468 0.2134,0.0466 0.4306,0.0811 0.6493,0.104 -1.0559,-1.2065 -1.6808,-2.547 -1.7763,-3.9919 -0.0512,0.0891 -0.1052,0.1777 -0.162,0.266 -0.3653,0.5668 -0.8267,1.078 -1.3427,1.5115 -0.0641,0.0538 -0.1315,0.1089 -0.2011,0.1636 z"
       style="fill:#e30016;fill-rule:evenodd"
       id="path20" />
    <path
       d="m 239.4022,320.6922 c 0.2618,-0.1761 0.5255,-0.3483 0.7905,-0.5167 3.4267,-2.1775 7.2457,-3.8248 11.1616,-5.0288 -0.031,0.3731 -0.0251,0.7493 0.0135,1.1217 0.1219,1.1738 0.5773,2.3665 1.2932,3.307 0.3956,0.5196 0.8972,0.991 1.4781,1.2975 -0.1408,0.1409 -0.2788,0.2829 -0.4128,0.4232 -0.8595,0.8997 -1.6737,1.896 -2.3187,2.9613 -0.7528,1.2438 -1.3608,2.7393 -1.1845,4.2204 0.0691,0.5812 0.2565,1.1287 0.5597,1.6296 1.127,1.8621 2.9877,2.9681 5.0479,3.5228 0.617,0.1661 1.2524,0.2836 1.8891,0.3527 -0.1037,0.1275 -0.2083,0.2506 -0.3101,0.3665 -0.6756,0.7683 -1.5158,1.5061 -2.4573,1.9245 -0.7023,0.3122 -1.7642,0.0173 -2.2771,-0.537 -0.1509,-0.1631 -0.2696,-0.3551 -0.3668,-0.5541 -0.1651,-0.3379 -0.2754,-0.7065 -0.3755,-1.068 -0.0966,-0.3491 -0.1852,-0.7249 -0.3271,-1.0585 -0.3015,-0.8362 -1.0488,-1.4663 -1.8101,-1.8783 -0.8992,-0.4865 -1.9531,-0.7536 -2.9715,-0.8053 -1.1361,-0.0576 -2.2849,0.1483 -3.304,0.6629 -1.1773,0.5944 -2.0623,1.5369 -2.6499,2.7122 -0.3859,0.7718 -0.6373,1.561 -0.7282,2.3489 -0.0322,-0.0689 -0.0656,-0.1381 -0.1002,-0.2074 -0.5162,-1.0351 -1.2346,-1.9898 -2.0324,-2.8248 -0.2802,-0.2932 -0.5956,-0.6041 -0.9168,-0.8774 0.0346,-4.0842 0.7551,-7.9798 2.3094,-11.4949 z m 26.7343,-10.4423 c 0.0832,-0.0408 0.1666,-0.0811 0.2495,-0.1211 0.6966,-0.336 1.4054,-0.6498 2.1197,-0.946 2.3521,-0.9754 4.8035,-1.7751 7.2834,-2.3524 5.2543,-1.2234 10.8737,-1.4807 15.976,0.2346 -0.264,0.561 -0.424,1.1678 -0.4904,1.8052 -0.1397,1.3412 0.5105,2.5863 1.355,3.5792 0.2157,0.2537 0.4477,0.496 0.6912,0.7249 -0.7064,0.4255 -1.3001,1.0068 -1.681,1.7686 -0.1532,0.3063 -0.2952,0.7102 -0.3555,1.0903 -1.5079,1.0447 -2.6337,2.4564 -3.0805,4.2721 -0.3906,1.5871 -0.1977,3.2671 0.3534,4.7918 0.4775,1.3207 1.2716,2.6563 2.2721,3.6488 0.3532,0.3503 0.7609,0.6855 1.2036,0.9269 -0.5678,0.2276 -1.2154,0.2756 -1.8395,0.2394 -0.8299,-0.0482 -1.6784,-0.2478 -2.4663,-0.5087 -0.2377,-0.0787 -0.4739,-0.1643 -0.7067,-0.2573 0.7754,-2.0452 0.7757,-4.2518 -0.7344,-6.0176 -1.2323,-1.4409 -3.1641,-2.1779 -5.0303,-2.2282 -1.2657,-0.0342 -2.5531,0.2434 -3.6564,0.8753 -0.2964,0.1697 -0.5781,0.3644 -0.8406,0.5831 -1.6968,1.414 -2.4699,3.2815 -1.8633,5.4437 0.1843,0.6569 0.4829,1.2885 0.851,1.8622 0.0757,0.118 0.1585,0.2415 0.2458,0.3622 -0.8594,1.3705 -2.1279,1.8813 -3.79,1.6094 -0.6539,-0.1069 -1.3029,-0.3253 -1.9048,-0.6004 -0.0327,-0.015 -0.0659,-0.0303 -0.0994,-0.046 0.9972,-1.1496 1.6551,-2.5128 1.8262,-4.0642 0.1735,-1.5743 -0.1843,-3.1722 -0.8959,-4.5778 -0.6471,-1.2782 -1.6234,-2.473 -2.8004,-3.2981 -0.8204,-0.5751 -1.8208,-1.0183 -2.836,-1.025 -0.2529,-2.7995 -0.0223,-5.3912 0.6445,-7.7749 z m -18.1028,33.0351 c 0.4961,-0.2005 0.9928,-0.3993 1.49,-0.5962 0.5736,-0.2271 1.1489,-0.4527 1.7268,-0.6697 -0.2126,-0.1146 -0.4167,-0.2431 -0.6067,-0.387 -0.1585,-0.1201 -0.3079,-0.2517 -0.4437,-0.3954 -0.0947,0.0659 -0.189,0.127 -0.2778,0.181 -0.5149,0.3135 -1.0769,0.5344 -1.6626,0.6581 0.002,0.0645 0.002,0.1294 0,0.1946 -0.0122,0.3175 -0.0834,0.6296 -0.1927,0.9273 -0.0108,0.0292 -0.0219,0.0583 -0.0333,0.0873 z m 14.6099,-5.0875 c 1.1476,-0.4001 2.3066,-0.7778 3.4746,-1.1134 0.4906,-0.1409 0.991,-0.2784 1.4952,-0.402 -0.5179,-0.3113 -1.0268,-0.6411 -1.515,-0.9935 -0.6542,-0.4721 -1.5198,-1.1591 -2.0296,-1.9254 -0.0927,0.0373 -0.1876,0.0701 -0.2829,0.0985 0.005,0.3212 -0.0149,0.643 -0.0554,0.9616 -0.144,1.1301 -0.5442,2.2505 -1.0378,3.2733 -0.0162,0.0337 -0.0326,0.0673 -0.0491,0.1009 z m 17.1203,-3.6581 c 0.6837,-0.0933 1.3678,-0.184 2.0518,-0.2718 0.7719,-0.0991 1.5456,-0.1955 2.3198,-0.2784 -0.2609,-0.2239 -0.5034,-0.4682 -0.7144,-0.7328 -0.1561,-0.1958 -0.2956,-0.4041 -0.4116,-0.6244 -0.1486,0.0582 -0.2962,0.1089 -0.4318,0.1504 -0.6755,0.2071 -1.3806,0.2908 -2.0824,0.2524 -0.0175,0.0969 -0.0405,0.1931 -0.0688,0.2886 -0.1005,0.3396 -0.2635,0.657 -0.4635,0.9484 -0.0627,0.0913 -0.1292,0.1806 -0.1991,0.2676 z m -38.9271,4.9188 c -0.0956,1.4449 -0.7205,2.7854 -1.7763,3.9919 0.2186,-0.0229 0.4359,-0.0574 0.6493,-0.104 1.2314,-0.269 2.1972,-0.9093 2.8328,-1.9468 -0.0696,-0.0547 -0.1371,-0.1098 -0.2011,-0.1636 -0.516,-0.4335 -0.9775,-0.9447 -1.3427,-1.5115 -0.0568,-0.0883 -0.1108,-0.1769 -0.162,-0.266 z"
       style="fill:#1b1918;fill-rule:evenodd"
       id="path22" />
    <path
       d="m 238.9387,321.8137 c 2.479,-1.7838 6.5217,-4.1401 12.3993,-5.975 0.005,0.1436 0.015,0.2869 0.0298,0.4297 0.1219,1.1738 0.5773,2.3665 1.2932,3.307 0.3956,0.5196 0.8972,0.991 1.4781,1.2975 -0.1408,0.1409 -0.2788,0.2829 -0.4128,0.4232 -0.8595,0.8997 -1.6737,1.896 -2.3187,2.9613 -0.7528,1.2438 -1.3608,2.7393 -1.1845,4.2204 0.0691,0.5812 0.2565,1.1287 0.5597,1.6296 1.127,1.8621 2.9877,2.9681 5.0479,3.5228 0.617,0.1661 1.2524,0.2836 1.8891,0.3527 -0.1037,0.1275 -0.2083,0.2506 -0.3101,0.3665 -0.6756,0.7683 -1.5158,1.5061 -2.4573,1.9245 -0.7023,0.3122 -1.7642,0.0173 -2.2771,-0.537 -0.1509,-0.1631 -0.2696,-0.3551 -0.3668,-0.5541 -0.1651,-0.3379 -0.2754,-0.7065 -0.3755,-1.068 -0.0966,-0.3491 -0.1852,-0.7249 -0.3271,-1.0585 -0.3015,-0.8362 -1.0488,-1.4663 -1.8101,-1.8783 -0.8992,-0.4865 -1.9531,-0.7536 -2.9715,-0.8053 -1.1361,-0.0576 -2.2849,0.1483 -3.304,0.6629 -1.1773,0.5944 -2.0623,1.5369 -2.6499,2.7122 -0.3859,0.7718 -0.6373,1.561 -0.7282,2.3489 -0.0322,-0.0689 -0.0656,-0.1381 -0.1002,-0.2074 -0.5162,-1.0351 -1.2346,-1.9898 -2.0324,-2.8248 -0.2802,-0.2932 -0.5956,-0.6041 -0.9168,-0.8774 0.031,-3.6546 0.6107,-7.1583 1.8459,-10.3734 z m 26.9823,-10.7181 c 0.039,-0.0211 13.735,-7.391 25.6028,-3.4194 -0.1241,0.3824 -0.2062,0.7818 -0.2491,1.194 -0.1397,1.3412 0.5105,2.5863 1.355,3.5792 0.2157,0.2537 0.4477,0.496 0.6912,0.7249 -0.7064,0.4255 -1.3001,1.0068 -1.681,1.7686 -0.1532,0.3063 -0.2952,0.7102 -0.3555,1.0903 -1.5079,1.0447 -2.6337,2.4564 -3.0805,4.2721 -0.3906,1.5871 -0.1977,3.2671 0.3534,4.7918 0.4775,1.3207 1.2716,2.6563 2.2721,3.6488 0.3532,0.3503 0.7609,0.6855 1.2036,0.9269 -0.5678,0.2276 -1.2154,0.2756 -1.8395,0.2394 -0.8299,-0.0482 -1.6784,-0.2478 -2.4663,-0.5087 -0.2377,-0.0787 -0.4739,-0.1643 -0.7067,-0.2573 0.7754,-2.0452 0.7757,-4.2518 -0.7344,-6.0176 -1.2323,-1.4409 -3.1641,-2.1779 -5.0303,-2.2282 -1.2657,-0.0342 -2.5531,0.2434 -3.6564,0.8753 -0.2964,0.1697 -0.5781,0.3644 -0.8406,0.5831 -1.6968,1.414 -2.4699,3.2815 -1.8633,5.4437 0.1843,0.6569 0.4829,1.2885 0.851,1.8622 0.0757,0.118 0.1585,0.2415 0.2458,0.3622 -0.8594,1.3705 -2.1279,1.8813 -3.79,1.6094 -0.6539,-0.1069 -1.3029,-0.3253 -1.9048,-0.6004 -0.0327,-0.015 -0.0659,-0.0303 -0.0994,-0.046 0.9972,-1.1496 1.6551,-2.5128 1.8262,-4.0642 0.1735,-1.5743 -0.1843,-3.1722 -0.8959,-4.5778 -0.6471,-1.2782 -1.6234,-2.473 -2.8004,-3.2981 -0.8204,-0.5751 -1.8208,-1.0183 -2.836,-1.025 -0.2233,-2.4719 -0.069,-4.7815 0.429,-6.9292 z m -17.8873,32.1894 c 0.4961,-0.2005 0.9928,-0.3993 1.49,-0.5962 0.5736,-0.2271 1.1489,-0.4527 1.7268,-0.6697 -0.2126,-0.1146 -0.4167,-0.2431 -0.6067,-0.387 -0.1585,-0.1201 -0.3079,-0.2517 -0.4437,-0.3954 -0.0947,0.0659 -0.189,0.127 -0.2778,0.181 -0.5149,0.3135 -1.0769,0.5344 -1.6626,0.6581 0.002,0.0645 0.002,0.1294 0,0.1946 -0.0122,0.3175 -0.0834,0.6296 -0.1927,0.9273 -0.0108,0.0292 -0.0219,0.0583 -0.0333,0.0873 z m 14.6099,-5.0875 c 1.1476,-0.4001 2.3066,-0.7778 3.4746,-1.1134 0.4906,-0.1409 0.991,-0.2784 1.4952,-0.402 -0.5179,-0.3113 -1.0268,-0.6411 -1.515,-0.9935 -0.6542,-0.4721 -1.5198,-1.1591 -2.0296,-1.9254 -0.0927,0.0373 -0.1876,0.0701 -0.2829,0.0985 0.005,0.3212 -0.0149,0.643 -0.0554,0.9616 -0.144,1.1301 -0.5442,2.2505 -1.0378,3.2733 -0.0162,0.0337 -0.0326,0.0673 -0.0491,0.1009 z m 17.1203,-3.6581 c 0.6837,-0.0933 1.3678,-0.184 2.0518,-0.2718 0.7719,-0.0991 1.5456,-0.1955 2.3198,-0.2784 -0.2609,-0.2239 -0.5034,-0.4682 -0.7144,-0.7328 -0.1561,-0.1958 -0.2956,-0.4041 -0.4116,-0.6244 -0.1486,0.0582 -0.2962,0.1089 -0.4318,0.1504 -0.6755,0.2071 -1.3806,0.2908 -2.0824,0.2524 -0.0175,0.0969 -0.0405,0.1931 -0.0688,0.2886 -0.1005,0.3396 -0.2635,0.657 -0.4635,0.9484 -0.0627,0.0913 -0.1292,0.1806 -0.1991,0.2676 z m -38.9271,4.9188 c -0.0956,1.4449 -0.7205,2.7854 -1.7763,3.9919 0.2186,-0.0229 0.4359,-0.0574 0.6493,-0.104 1.2314,-0.269 2.1972,-0.9093 2.8328,-1.9468 -0.0696,-0.0547 -0.1371,-0.1098 -0.2011,-0.1636 -0.516,-0.4335 -0.9775,-0.9447 -1.3427,-1.5115 -0.0568,-0.0883 -0.1108,-0.1769 -0.162,-0.266 z"
       style="fill:#e30016;fill-rule:evenodd"
       id="path24" />
    <path
       d="m 297.8711,316.6278 a 4.7688,4.7688 0 0 1 4.7688,4.7688 4.7688,4.7688 0 1 1 -4.7688,-4.7688 z"
       style="fill:#1b1918;fill-rule:evenodd"
       id="path26" />
    <path
       d="m 297.8711,317.3558 a 4.0407,4.0407 0 0 1 4.0408,4.0408 4.0407,4.0407 0 1 1 -4.0408,-4.0408 z"
       style="fill:#ffffff;fill-rule:evenodd"
       id="path28" />
    <path
       d="m 297.6378,312.3595 c -1.6213,0 -2.9365,-1.3152 -2.9365,-2.9365 0,-1.6213 1.3152,-2.9364 2.9365,-2.9364 1.6213,0 2.9364,1.3151 2.9364,2.9364 0,1.6213 -1.3151,2.9365 -2.9364,2.9365 z m 0,-17.0018 c -1.5265,0 -2.7647,-1.2382 -2.7647,-2.7647 0,-1.5264 1.2382,-2.7646 2.7647,-2.7646 1.5264,0 2.7646,1.2382 2.7646,2.7646 0,1.5265 -1.2382,2.7647 -2.7646,2.7647 z m 0,8.4315 c -1.6213,0 -2.9365,-1.3151 -2.9365,-2.9364 0,-1.6213 1.3152,-2.9365 2.9365,-2.9365 1.6213,0 2.9364,1.3152 2.9364,2.9365 0,1.6213 -1.3151,2.9364 -2.9364,2.9364 z"
       style="fill:#1b1918;fill-rule:evenodd"
       id="path30" />
    <path
       d="m 297.6378,311.7042 c 1.2596,0 2.2812,-1.0215 2.2812,-2.2812 0,-1.2596 -1.0216,-2.2812 -2.2812,-2.2812 -1.2597,0 -2.2812,1.0216 -2.2812,2.2812 0,1.2597 1.0215,2.2812 2.2812,2.2812 z m 0,-17.0018 c 1.1648,0 2.1094,-0.9446 2.1094,-2.1094 0,-1.1648 -0.9446,-2.1094 -2.1094,-2.1094 -1.1648,0 -2.1094,0.9446 -2.1094,2.1094 0,1.1648 0.9446,2.1094 2.1094,2.1094 z m 0,8.4316 c 1.2596,0 2.2812,-1.0216 2.2812,-2.2812 0,-1.2597 -1.0216,-2.2812 -2.2812,-2.2812 -1.2597,0 -2.2812,1.0215 -2.2812,2.2812 0,1.2596 1.0215,2.2812 2.2812,2.2812 z"
       style="fill:#ffffff;fill-rule:evenodd"
       id="path32" />
    <path
       d="m 304.2855,282.3284 a 2.6756,2.6756 0 0 0 -2.6756,2.6756 2.6756,2.6756 0 1 0 2.6756,-2.6756 z"
       style="fill:#1b1918;fill-rule:evenodd"
       id="path34" />
    <path
       d="m 304.2855,282.9836 a 2.0204,2.0204 0 0 0 -2.0204,2.0204 2.0204,2.0204 0 1 0 2.0204,-2.0204 z"
       style="fill:#ffffff;fill-rule:evenodd"
       id="path36" />
    <path
       d="m 312.0857,283.8189 a 2.6756,2.6756 0 0 0 -2.6756,2.6756 2.6756,2.6756 0 1 0 2.6756,-2.6756 z"
       style="fill:#1b1918;fill-rule:evenodd"
       id="path38" />
    <path
       d="m 312.0857,284.4741 a 2.0204,2.0204 0 0 0 -2.0204,2.0204 2.0204,2.0204 0 1 0 2.0204,-2.0204 z"
       style="fill:#ffffff;fill-rule:evenodd"
       id="path40" />
    <path
       d="m 319.4884,286.8992 a 2.6756,2.6756 0 0 0 -2.6756,2.6756 2.6756,2.6756 0 1 0 2.6756,-2.6756 z"
       style="fill:#1b1918;fill-rule:evenodd"
       id="path42" />
    <path
       d="m 319.4884,287.5544 a 2.0204,2.0204 0 0 0 -2.0204,2.0204 2.0204,2.0204 0 1 0 2.0204,-2.0204 z"
       style="fill:#ffffff;fill-rule:evenodd"
       id="path44" />
    <path
       d="m 326.9905,291.3209 a 2.6756,2.6756 0 0 0 -2.6756,2.6757 2.6756,2.6756 0 1 0 2.6756,-2.6757 z"
       style="fill:#1b1918;fill-rule:evenodd"
       id="path46" />
    <path
       d="m 326.9905,291.9762 a 2.0204,2.0204 0 0 0 -2.0204,2.0204 2.0204,2.0204 0 1 0 2.0204,-2.0204 z"
       style="fill:#ffffff;fill-rule:evenodd"
       id="path48" />
    <path
       d="m 332.6543,297.8791 a 2.6756,2.6756 0 0 0 -2.6756,2.6756 2.6756,2.6756 0 1 0 2.6756,-2.6756 z"
       style="fill:#1b1918;fill-rule:evenodd"
       id="path50" />
    <path
       d="m 332.6543,298.5343 a 2.0204,2.0204 0 0 0 -2.0204,2.0204 2.0204,2.0204 0 1 0 2.0204,-2.0204 z"
       style="fill:#ffffff;fill-rule:evenodd"
       id="path52" />
    <path
       d="m 340.0073,296.7364 a 2.6756,2.6756 0 0 0 -2.6756,2.6756 2.6756,2.6756 0 1 0 2.6756,-2.6756 z"
       style="fill:#1b1918;fill-rule:evenodd"
       id="path54" />
    <path
       d="m 340.0073,297.3916 a 2.0204,2.0204 0 0 0 -2.0203,2.0204 2.0204,2.0204 0 1 0 2.0203,-2.0204 z"
       style="fill:#ffffff;fill-rule:evenodd"
       id="path56" />
    <path
       d="m 347.3604,299.618 a 2.6756,2.6756 0 0 0 -2.6756,2.6756 2.6756,2.6756 0 1 0 2.6756,-2.6756 z"
       style="fill:#1b1918;fill-rule:evenodd"
       id="path58" />
    <path
       d="m 347.3604,300.2732 a 2.0204,2.0204 0 0 0 -2.0204,2.0204 2.0204,2.0204 0 1 0 2.0204,-2.0204 z"
       style="fill:#ffffff;fill-rule:evenodd"
       id="path60" />
    <path
       d="m 354.6637,304.2384 a 2.6756,2.6756 0 0 0 -2.6756,2.6757 2.6756,2.6756 0 1 0 2.6756,-2.6757 z"
       style="fill:#1b1918;fill-rule:evenodd"
       id="path62" />
    <path
       d="m 354.6637,304.8937 a 2.0204,2.0204 0 0 0 -2.0203,2.0204 2.0204,2.0204 0 1 0 2.0203,-2.0204 z"
       style="fill:#ffffff;fill-rule:evenodd"
       id="path64" />
    <path
       d="m 359.9301,310.3991 a 2.6756,2.6756 0 0 0 -2.6756,2.6756 2.6756,2.6756 0 1 0 2.6756,-2.6756 z"
       style="fill:#1b1918;fill-rule:evenodd"
       id="path66" />
    <path
       d="m 359.9301,311.0543 a 2.0204,2.0204 0 0 0 -2.0204,2.0204 2.0204,2.0204 0 1 0 2.0204,-2.0204 z"
       style="fill:#ffffff;fill-rule:evenodd"
       id="path68" />
    <path
       d="m 363.6563,318.0005 a 2.6756,2.6756 0 0 0 -2.6756,2.6757 2.6756,2.6756 0 1 0 2.6756,-2.6757 z"
       style="fill:#1b1918;fill-rule:evenodd"
       id="path70" />
    <path
       d="m 363.6563,318.6558 a 2.0204,2.0204 0 0 0 -2.0204,2.0204 2.0204,2.0204 0 1 0 2.0204,-2.0204 z"
       style="fill:#ffffff;fill-rule:evenodd"
       id="path72" />
    <path
       d="m 365.3455,326.0491 a 2.6756,2.6756 0 0 0 -2.6756,2.6756 2.6756,2.6756 0 1 0 2.6756,-2.6756 z"
       style="fill:#1b1918;fill-rule:evenodd"
       id="path74" />
    <path
       d="m 365.3455,326.7044 a 2.0204,2.0204 0 0 0 -2.0204,2.0203 2.0204,2.0204 0 1 0 2.0204,-2.0203 z"
       style="fill:#ffffff;fill-rule:evenodd"
       id="path76" />
    <path
       d="m 364.8001,335.4194 a 4.2312,4.2312 0 0 0 -4.2312,4.2313 4.2312,4.2312 0 1 0 4.2312,-4.2313 z"
       style="fill:#1b1918;fill-rule:evenodd"
       id="path78" />
    <path
       d="m 364.8002,336.0747 a 3.576,3.576 0 0 0 -3.576,3.576 3.576,3.576 0 1 0 3.576,-3.576 z"
       style="fill:#ffffff;fill-rule:evenodd"
       id="path80" />
    <path
       d="m 333.3015,321.5091 a 4.2312,4.2312 0 0 0 -4.2312,4.2312 4.2312,4.2312 0 1 0 4.2312,-4.2312 z"
       style="fill:#1b1918;fill-rule:evenodd"
       id="path82" />
    <path
       d="m 333.3015,322.1643 a 3.576,3.576 0 0 0 -3.576,3.576 3.576,3.576 0 1 0 3.576,-3.576 z"
       style="fill:#ffffff;fill-rule:evenodd"
       id="path84" />
    <path
       d="m 337.5423,312.8108 a 2.6756,2.6756 0 0 0 -2.6756,2.6757 2.6756,2.6756 0 1 0 2.6756,-2.6757 z"
       style="fill:#1b1918;fill-rule:evenodd"
       id="path86" />
    <path
       d="m 337.5423,313.4661 a 2.0204,2.0204 0 0 0 -2.0204,2.0204 2.0204,2.0204 0 1 0 2.0204,-2.0204 z"
       style="fill:#ffffff;fill-rule:evenodd"
       id="path88" />
    <path
       d="m 335.7843,304.5365 a 2.6756,2.6756 0 0 0 -2.6756,2.6756 2.6756,2.6756 0 1 0 2.6756,-2.6756 z"
       style="fill:#1b1918;fill-rule:evenodd"
       id="path90" />
    <path
       d="m 335.7843,305.1918 a 2.0204,2.0204 0 0 0 -2.0204,2.0203 2.0204,2.0204 0 1 0 2.0204,-2.0203 z"
       style="fill:#ffffff;fill-rule:evenodd"
       id="path92" />
    <path
       d="m 290.9901,282.3284 a 2.6756,2.6756 0 0 1 2.6756,2.6756 2.6756,2.6756 0 1 1 -2.6756,-2.6756 z"
       style="fill:#1b1918;fill-rule:evenodd"
       id="path94" />
    <path
       d="m 290.9901,282.9836 a 2.0204,2.0204 0 0 1 2.0203,2.0204 2.0204,2.0204 0 1 1 -2.0203,-2.0204 z"
       style="fill:#ffffff;fill-rule:evenodd"
       id="path96" />
    <path
       d="m 283.1899,283.8189 a 2.6756,2.6756 0 0 1 2.6756,2.6756 2.6756,2.6756 0 1 1 -2.6756,-2.6756 z"
       style="fill:#1b1918;fill-rule:evenodd"
       id="path98" />
    <path
       d="m 283.1899,284.4741 a 2.0204,2.0204 0 0 1 2.0204,2.0204 2.0204,2.0204 0 1 1 -2.0204,-2.0204 z"
       style="fill:#ffffff;fill-rule:evenodd"
       id="path100" />
    <path
       d="m 275.7872,286.8992 a 2.6756,2.6756 0 0 1 2.6756,2.6756 2.6756,2.6756 0 1 1 -2.6756,-2.6756 z"
       style="fill:#1b1918;fill-rule:evenodd"
       id="path102" />
    <path
       d="m 275.7872,287.5544 a 2.0204,2.0204 0 0 1 2.0204,2.0204 2.0204,2.0204 0 1 1 -2.0204,-2.0204 z"
       style="fill:#ffffff;fill-rule:evenodd"
       id="path104" />
    <path
       d="m 268.2851,291.3209 a 2.6756,2.6756 0 0 1 2.6756,2.6757 2.6756,2.6756 0 1 1 -2.6756,-2.6757 z"
       style="fill:#1b1918;fill-rule:evenodd"
       id="path106" />
    <path
       d="m 268.2851,291.9762 a 2.0204,2.0204 0 0 1 2.0204,2.0204 2.0204,2.0204 0 1 1 -2.0204,-2.0204 z"
       style="fill:#ffffff;fill-rule:evenodd"
       id="path108" />
    <path
       d="m 262.6213,297.8791 a 2.6756,2.6756 0 0 1 2.6756,2.6756 2.6756,2.6756 0 1 1 -2.6756,-2.6756 z"
       style="fill:#1b1918;fill-rule:evenodd"
       id="path110" />
    <path
       d="m 262.6213,298.5343 a 2.0204,2.0204 0 0 1 2.0203,2.0204 2.0204,2.0204 0 1 1 -2.0203,-2.0204 z"
       style="fill:#ffffff;fill-rule:evenodd"
       id="path112" />
    <path
       d="m 255.2683,296.7364 a 2.6756,2.6756 0 0 1 2.6756,2.6756 2.6756,2.6756 0 1 1 -2.6756,-2.6756 z"
       style="fill:#1b1918;fill-rule:evenodd"
       id="path114" />
    <path
       d="m 255.2683,297.3916 a 2.0204,2.0204 0 0 1 2.0203,2.0204 2.0204,2.0204 0 1 1 -2.0203,-2.0204 z"
       style="fill:#ffffff;fill-rule:evenodd"
       id="path116" />
    <path
       d="m 247.9152,299.618 a 2.6756,2.6756 0 0 1 2.6756,2.6756 2.6756,2.6756 0 1 1 -2.6756,-2.6756 z"
       style="fill:#1b1918;fill-rule:evenodd"
       id="path118" />
    <path
       d="m 247.9152,300.2732 a 2.0204,2.0204 0 0 1 2.0204,2.0204 2.0204,2.0204 0 1 1 -2.0204,-2.0204 z"
       style="fill:#ffffff;fill-rule:evenodd"
       id="path120" />
    <path
       d="m 240.6119,304.2384 a 2.6756,2.6756 0 0 1 2.6756,2.6757 2.6756,2.6756 0 1 1 -2.6756,-2.6757 z"
       style="fill:#1b1918;fill-rule:evenodd"
       id="path122" />
    <path
       d="m 240.6119,304.8937 a 2.0204,2.0204 0 0 1 2.0203,2.0204 2.0204,2.0204 0 1 1 -2.0203,-2.0204 z"
       style="fill:#ffffff;fill-rule:evenodd"
       id="path124" />
    <path
       d="m 235.3455,310.3991 a 2.6756,2.6756 0 0 1 2.6756,2.6756 2.6756,2.6756 0 1 1 -2.6756,-2.6756 z"
       style="fill:#1b1918;fill-rule:evenodd"
       id="path126" />
    <path
       d="m 235.3455,311.0543 a 2.0204,2.0204 0 0 1 2.0204,2.0204 2.0204,2.0204 0 1 1 -2.0204,-2.0204 z"
       style="fill:#ffffff;fill-rule:evenodd"
       id="path128" />
    <path
       d="m 231.6193,318.0005 a 2.6756,2.6756 0 0 1 2.6756,2.6757 2.6756,2.6756 0 1 1 -2.6756,-2.6757 z"
       style="fill:#1b1918;fill-rule:evenodd"
       id="path130" />
    <path
       d="m 231.6193,318.6558 a 2.0204,2.0204 0 0 1 2.0204,2.0204 2.0204,2.0204 0 1 1 -2.0204,-2.0204 z"
       style="fill:#ffffff;fill-rule:evenodd"
       id="path132" />
    <path
       d="m 229.9301,326.0491 a 2.6756,2.6756 0 0 1 2.6756,2.6756 2.6756,2.6756 0 1 1 -2.6756,-2.6756 z"
       style="fill:#1b1918;fill-rule:evenodd"
       id="path134" />
    <path
       d="m 229.9301,326.7044 a 2.0204,2.0204 0 0 1 2.0204,2.0203 2.0204,2.0204 0 1 1 -2.0204,-2.0203 z"
       style="fill:#ffffff;fill-rule:evenodd"
       id="path136" />
    <path
       d="m 230.4754,335.4194 a 4.2312,4.2312 0 0 1 4.2313,4.2313 4.2312,4.2312 0 1 1 -4.2313,-4.2313 z"
       style="fill:#1b1918;fill-rule:evenodd"
       id="path138" />
    <path
       d="m 230.4754,336.0747 a 3.576,3.576 0 0 1 3.576,3.576 3.576,3.576 0 1 1 -3.576,-3.576 z"
       style="fill:#ffffff;fill-rule:evenodd"
       id="path140" />
    <path
       d="m 261.9741,321.5091 a 4.2312,4.2312 0 0 1 4.2312,4.2312 4.2312,4.2312 0 1 1 -4.2312,-4.2312 z"
       style="fill:#1b1918;fill-rule:evenodd"
       id="path142" />
    <path
       d="m 261.9741,322.1643 a 3.576,3.576 0 0 1 3.576,3.576 3.576,3.576 0 1 1 -3.576,-3.576 z"
       style="fill:#ffffff;fill-rule:evenodd"
       id="path144" />
    <path
       d="m 257.7333,312.8108 a 2.6756,2.6756 0 0 1 2.6756,2.6757 2.6756,2.6756 0 1 1 -2.6756,-2.6757 z"
       style="fill:#1b1918;fill-rule:evenodd"
       id="path146" />
    <path
       d="m 257.7333,313.4661 a 2.0204,2.0204 0 0 1 2.0203,2.0204 2.0204,2.0204 0 1 1 -2.0203,-2.0204 z"
       style="fill:#ffffff;fill-rule:evenodd"
       id="path148" />
    <path
       d="m 259.4913,304.5365 a 2.6756,2.6756 0 0 1 2.6756,2.6756 2.6756,2.6756 0 1 1 -2.6756,-2.6756 z"
       style="fill:#1b1918;fill-rule:evenodd"
       id="path150" />
    <path
       d="m 259.4913,305.1918 a 2.0204,2.0204 0 0 1 2.0203,2.0203 2.0204,2.0204 0 1 1 -2.0203,-2.0203 z"
       style="fill:#ffffff;fill-rule:evenodd"
       id="path152" />
    <path
       d="m 339.8127,413.1073 -42.1749,41.1467 -42.1749,-41.1467 c -1.4357,1.2103 -2.8197,2.482 -4.1469,3.8104 -12.3055,12.3169 -19.159,28.8577 -19.159,46.2719 0,17.4146 6.8542,33.9554 19.1599,46.2724 2.0023,2.0041 4.1336,3.8788 6.377,5.6087 l 0.2551,0.1968 v 18.3988 l -0.9854,-0.5747 c -6.0327,-3.5184 -11.5963,-7.8131 -16.5323,-12.7534 -7.361,-7.3674 -13.2568,-16.1 -17.3131,-25.6936 -4.2135,-9.9653 -6.3493,-20.6374 -6.3493,-31.455 0,-10.8153 2.135,-21.4852 6.3471,-31.4488 4.0549,-9.5919 9.9487,-18.3231 17.3072,-25.69 4.7994,-4.8048 10.1927,-8.9998 16.0342,-12.4638 l 0.4321,-0.2563 10.8745,10.6093 29.8738,29.1455 40.7482,-39.7548 0.4322,0.2563 c 5.8414,3.464 11.2348,7.659 16.0341,12.4638 7.3586,7.3669 13.2524,16.0981 17.3073,25.69 4.2121,9.9636 6.3471,20.6335 6.3471,31.4488 0,10.8175 -2.1358,21.4896 -6.3493,31.4549 -4.0562,9.5936 -9.952,18.3262 -17.313,25.6936 -4.9361,4.9404 -10.4997,9.235 -16.5324,12.7535 l -0.9854,0.5747 v -18.3988 l 0.2551,-0.1967 c 2.2435,-1.7301 4.3748,-3.6048 6.3771,-5.609 12.3056,-12.3169 19.1598,-28.8576 19.1598,-46.2722 0,-17.4142 -6.8536,-33.955 -19.159,-46.2719 -1.3273,-1.3284 -2.7112,-2.6001 -4.1469,-3.8104 z m -1.3287,-18.9567 c 23.564,13.9739 39.3674,39.6626 39.3674,69.039 0,29.585 -16.0277,55.4308 -39.8696,69.336 v -16.936 c 15.6838,-12.0943 25.792,-31.0676 25.792,-52.4 0,-20.5063 -9.3401,-38.8332 -23.9952,-50.9645 l -42.1408,41.1135 -42.1408,-41.1135 c -14.6551,12.1313 -23.9952,30.4582 -23.9952,50.9645 0,21.3324 10.1081,40.3057 25.7919,52.4 v 16.936 c -23.8418,-13.9052 -39.8695,-39.751 -39.8695,-69.336 0,-29.3764 15.8034,-55.0651 39.3674,-69.039 l 10.5148,10.2584 v 0 l 30.3314,29.5919 30.3314,-29.5919 v 0 z"
       style="fill:#1b1918;fill-rule:evenodd"
       id="path154" />
    <path
       d="m 245.3869,352.2365 5.0009,10.4067 c 14.8013,-6.9694 30.885,-10.5298 47.25,-10.5298 16.3649,0 32.4495,3.559 47.2507,10.5283 l 4.999,-10.4026 c -16.3644,-7.7223 -34.1497,-11.6687 -52.2497,-11.6687 -18.0997,0 -35.8864,3.9442 -52.2509,11.6661 z m 52.2509,-12.3213 c 19.0224,0 37.0367,4.3164 53.1253,12.0145 l -5.5664,11.5835 c -14.4039,-6.8865 -30.5314,-10.7445 -47.5589,-10.7445 -17.0275,0 -33.1543,3.8594 -47.5582,10.746 l -5.5683,-11.5875 c 16.0887,-7.6979 34.1042,-12.012 53.1265,-12.012 z"
       style="fill:#1b1918;fill-rule:evenodd"
       id="path156" />
    <path
       d="m 288.2743,346.0872 9.3635,-4.4534 9.3635,4.4534 -9.3635,4.4534 z"
       style="fill:#1b1918;fill-rule:evenodd"
       id="path158" />
    <path
       d="m 289.7999,346.0872 7.8379,3.7278 7.8379,-3.7278 -7.8379,-3.7278 z"
       style="fill:#e30016;fill-rule:evenodd"
       id="path160" />
    <path
       d="m 277.9814,347.6761 -7.9002,6.7153 -10.1948,-1.8909 7.9002,-6.7153 z"
       style="fill:#1b1918;fill-rule:evenodd"
       id="path162" />
    <path
       d="m 276.5073,348.0691 -6.6131,5.6212 -8.5337,-1.5828 6.6131,-5.6212 z"
       style="fill:#729895;fill-rule:evenodd"
       id="path164" />
    <path
       d="m 318.1861,347.6761 10.1948,-1.8909 7.9001,6.7153 -10.1947,1.8909 z"
       style="fill:#3b3b3b;fill-rule:evenodd"
       id="path166" />
    <path
       d="m 319.6602,348.0691 6.6131,5.6212 8.5337,-1.5828 -6.6131,-5.6212 z"
       style="fill:#458877;fill-rule:evenodd"
       id="path168" />
    <path
       d="m 349.8361,353.8588 0.2112,4.775 -3.8555,2.8086 -2.0376,-5.7328 z"
       style="fill:#1b1918;fill-rule:evenodd"
       id="path170" />
    <path
       d="m 349.2196,354.7488 -4.2226,1.3754 1.5183,4.2718 2.8619,-2.0847 z"
       style="fill:#e30016;fill-rule:evenodd"
       id="path172" />
    <path
       d="m 245.4395,353.8588 5.6807,1.8508 -2.0364,5.7328 -3.8568,-2.8086 z"
       style="fill:#1b1918;fill-rule:evenodd"
       id="path174" />
    <path
       d="m 246.0558,354.7487 -0.1585,3.5626 2.8628,2.0848 1.5174,-4.2719 z"
       style="fill:#e30016;fill-rule:evenodd"
       id="path176" />
    <path
       d="m 339.9755,351.3172 a 2.6756,2.6756 0 0 0 -2.6756,2.6756 2.6756,2.6756 0 1 0 2.6756,-2.6756 z"
       style="fill:#1b1918;fill-rule:evenodd"
       id="path178" />
    <path
       d="m 339.9755,351.9724 a 2.0204,2.0204 0 0 0 -2.0203,2.0204 2.0204,2.0204 0 1 0 2.0203,-2.0204 z"
       style="fill:#ffffff;fill-rule:evenodd"
       id="path180" />
    <path
       d="m 255.2989,351.3172 a 2.6756,2.6756 0 0 1 2.6756,2.6756 2.6756,2.6756 0 1 1 -2.6756,-2.6756 z"
       style="fill:#1b1918;fill-rule:evenodd"
       id="path182" />
    <path
       d="m 255.2989,351.9724 a 2.0204,2.0204 0 0 1 2.0203,2.0204 2.0204,2.0204 0 1 1 -2.0203,-2.0204 z"
       style="fill:#ffffff;fill-rule:evenodd"
       id="path184" />
    <path
       d="m 312.2341,343.825 a 2.9815,2.9815 0 0 0 -2.9815,2.9815 2.9815,2.9815 0 1 0 2.9815,-2.9815 z"
       style="fill:#1b1918;fill-rule:evenodd"
       id="path186" />
    <path
       d="m 312.2341,344.5552 a 2.2513,2.2513 0 0 0 -2.2514,2.2513 2.2513,2.2513 0 1 0 2.2514,-2.2513 z"
       style="fill:#ffffff;fill-rule:evenodd"
       id="path188" />
    <path
       d="m 283.0403,343.825 a 2.9815,2.9815 0 0 1 2.9815,2.9815 2.9815,2.9815 0 1 1 -2.9815,-2.9815 z"
       style="fill:#1b1918;fill-rule:evenodd"
       id="path190" />
    <path
       d="m 283.0403,344.5552 a 2.2513,2.2513 0 0 1 2.2514,2.2513 2.2513,2.2513 0 1 1 -2.2514,-2.2513 z"
       style="fill:#ffffff;fill-rule:evenodd"
       id="path192" />
    <path
       d="m 297.6378,353.3372 c 60.6596,0 109.8524,49.1929 109.8524,109.8524 0,60.6596 -49.1928,109.8524 -109.8524,109.8524 -60.6596,0 -109.8524,-49.1928 -109.8524,-109.8524 0,-60.6595 49.1928,-109.8524 109.8524,-109.8524 z m 0,0.6553 c 60.2977,0 109.1972,48.8994 109.1972,109.1971 0,60.2978 -48.8995,109.1972 -109.1972,109.1972 -60.2978,0 -109.1972,-48.8994 -109.1972,-109.1972 0,-60.2977 48.8994,-109.1971 109.1972,-109.1971 z"
       style="fill:#1b1918;fill-rule:evenodd"
       id="path194" />
    <path
       d="m 297.6378,368.3106 c 52.3914,0 94.8791,42.4876 94.8791,94.879 0,52.3915 -42.4877,94.8791 -94.8791,94.8791 -52.3914,0 -94.8791,-42.4876 -94.8791,-94.8791 0,-52.3914 42.4877,-94.879 94.8791,-94.879 z m 0,-14.3181 c 60.2977,0 109.1972,48.8994 109.1972,109.1971 0,60.2978 -48.8995,109.1972 -109.1972,109.1972 -60.2978,0 -109.1972,-48.8994 -109.1972,-109.1972 0,-60.2977 48.8994,-109.1971 109.1972,-109.1971 z"
       style="fill:#fcb900;fill-rule:evenodd"
       id="path196" />
    <path
       d="m 297.6378,368.3106 c 52.3914,0 94.8791,42.4876 94.8791,94.879 0,52.3915 -42.4877,94.8791 -94.8791,94.8791 -52.3914,0 -94.8791,-42.4876 -94.8791,-94.8791 0,-52.3914 42.4877,-94.879 94.8791,-94.879 z m 0,0.6552 c 52.0296,0 94.2238,42.1943 94.2238,94.2238 0,52.0296 -42.1942,94.2239 -94.2238,94.2239 -52.0296,0 -94.2238,-42.1943 -94.2238,-94.2239 0,-52.0295 42.1942,-94.2238 94.2238,-94.2238 z"
       style="fill:#1b1918;fill-rule:evenodd"
       id="path198" />
    <path
       d="m 338.484,394.1506 c 23.564,13.9739 39.3674,39.6626 39.3674,69.039 0,29.585 -16.0277,55.4308 -39.8696,69.336 v -16.936 c 15.6838,-12.0943 25.792,-31.0676 25.792,-52.4 0,-20.5063 -9.3401,-38.8332 -23.9952,-50.9645 l -42.1408,41.1135 -42.1408,-41.1135 c -14.6551,12.1313 -23.9952,30.4582 -23.9952,50.9645 0,21.3324 10.1081,40.3057 25.7919,52.4 v 16.936 c -23.8418,-13.9052 -39.8695,-39.751 -39.8695,-69.336 0,-29.3764 15.8034,-55.0651 39.3674,-69.039 l 10.5148,10.2584 v 0 l 30.3314,29.5919 30.3314,-29.5919 v 0 z"
       style="fill:#fcb900;fill-rule:evenodd"
       id="path200" />
    <path
       d="m 334.8924,427.3109 c -9.4101,-9.7685 -22.6231,-15.8485 -37.2546,-15.8485 -28.5633,0 -51.7272,23.1639 -51.7272,51.7272 0,28.5634 23.1639,51.7273 51.7272,51.7273 14.2103,0 27.0827,-5.7347 36.4328,-15.0137 l 6e-4,-6e-4 -9.3846,-9.1568 -10e-4,0.001 9.3851,9.1563 -9.3851,-9.1563 c -6.9677,6.8397 -16.5151,11.0605 -27.0477,11.0605 -21.3244,0 -38.6178,-17.2934 -38.6178,-38.6178 0,-21.3243 17.2934,-38.6177 38.6178,-38.6177 10.9539,0 20.8433,4.564 27.8722,11.8927 l 9.3836,-9.1525 z m -9.3824,9.1537 9.3824,-9.1537 z"
       style="fill:#fcb900;fill-rule:evenodd"
       id="path202" />
    <path
       d="m 334.5301,500.3703 c -9.8425,9.7666 -23.0236,15.2018 -36.8923,15.2018 -28.925,0 -52.3825,-23.4575 -52.3825,-52.3825 0,-28.9249 23.4575,-52.3824 52.3825,-52.3824 14.2819,0 27.8201,5.7662 37.7251,16.0476 l 0.4573,0.4688 -10.3257,10.0714 -0.4574,-0.4769 c -7.1827,-7.489 -17.0184,-11.6909 -27.3993,-11.6909 -20.9627,0 -37.9625,16.9998 -37.9625,37.9624 0,20.9627 16.9998,37.9625 37.9625,37.9625 9.9804,0 19.4678,-3.8828 26.5886,-10.8728 l 10e-4,-10e-4 0.4587,-0.4481 10.3233,10.0727 z m 0.3623,-73.0594 c -9.4101,-9.7685 -22.6231,-15.8485 -37.2546,-15.8485 -28.5633,0 -51.7272,23.1639 -51.7272,51.7272 0,28.5634 23.1639,51.7273 51.7272,51.7273 14.2103,0 27.0827,-5.7347 36.4328,-15.0137 l 6e-4,-6e-4 -9.3846,-9.1568 -10e-4,0.001 9.3851,9.1563 -9.3851,-9.1563 c -6.9677,6.8397 -16.5151,11.0605 -27.0477,11.0605 -21.3244,0 -38.6178,-17.2934 -38.6178,-38.6178 0,-21.3243 17.2934,-38.6177 38.6178,-38.6177 10.9539,0 20.8433,4.564 27.8722,11.8927 l 9.3836,-9.1525 z m -9.3824,9.1537 9.3824,-9.1537 z"
       style="fill:#1b1918;fill-rule:evenodd"
       id="path204" />
    <path
       d="m 276.9217,413.7899 15.5167,15.1384 0.4575,-0.469 -15.7612,-15.3771 z"
       style="fill:#1b1918;fill-rule:evenodd"
       id="path206" />
    <path
       d="m 279.0276,435.1821 -15.3627,-14.9882 -0.2638,0.658 14.5351,14.1808 z"
       style="fill:#1b1918;fill-rule:evenodd"
       id="path208" />
    <path
       d="m 276.9217,413.7899 -13.0333,6.6221 13.1023,12.7828 14.5654,-5.1272 z"
       style="fill:#fcb900;fill-rule:evenodd"
       id="path210" />
  </g>
</svg>
